
<svg fill="#223246" xmlns="http://www.w3.org/2000/svg" viewBox="-6.562 -6.956 733 677"><path d="M482.168 0c3.362.695 6.763 1.242 10.079 2.112 14.219 3.734 27.06 10.302 37.519 20.614 13.499 13.31 21.473 29.723 25.104 48.338 3.08 15.795 1.232 31.335-.716 47.111-1.845 14.93-2.615 30.168-1.899 45.178.477 9.998 3.622 20.099 6.965 29.668 3.903 11.179 13.738 16.068 24.754 16.918 12.059.931 24.264-.223 36.371.305 24.34 1.062 46.438 8.261 65.495 24.211 18.511 15.492 28.479 35.46 32.966 58.666.348 1.801.674 3.607 1.012 5.411v21.604c-1.643 7.075-2.887 14.273-5.003 21.204-6.055 19.822-17.016 36.817-32.224 50.693-20.486 18.691-44.795 30.135-72.088 35.142-5.83 1.069-11.673 2.126-17.553 2.821-1.312.154-3.789-1-4.026-1.97-.62-2.522 1.552-2.459 3.545-2.92 14.766-3.42 29.868-5.964 44.113-10.936 23.143-8.079 41.991-22.613 56.908-42.33 10.816-14.297 17.514-30.335 20.17-47.73 3.394-22.22-.507-43.422-12.047-63.125-8.763-14.964-21.048-26.058-36.081-34.088-12.716-6.792-26.414-10.743-40.996-10.842-10.982-.075-21.975.279-32.946-.074-25.968-.833-36.317-11.816-41.582-32.965-4.281-17.192-3.848-34.685-2.049-52.17 1.27-12.339 3.606-24.661 3.71-37.004.176-21.271-4.826-41.288-18.073-58.715-12.09-15.903-28.151-25.303-47.397-29.013-16.01-3.086-31.636-.401-46.819 5.515-16.866 6.571-30.92 17.177-43.319 29.991-6.02 6.22-10.929 13.505-16.531 20.148-.854 1.012-2.738 1.155-4.146 1.7.051-1.464-.46-3.305.234-4.337 12.224-18.188 27.386-33.358 46.29-44.656C434.169 7.148 447.239 2.273 461.523.864c.361-.035.672-.566 1.006-.865L482.168 0zM0 127.662c.933-5.112 1.912-10.216 2.79-15.337 3.478-20.286 11.705-38.512 23.873-55.014C38.237 41.613 52.535 29.016 69.67 19.636 81.245 13.3 93.359 8.458 106.313 5.799c15.405-3.163 30.791-4.323 46.638-3.118 21.438 1.63 41.304 7.458 59.841 17.966 8.905 5.047 17.38 10.857 25.987 16.419 1.157.749 1.946 2.069 3.047 3.28-2.916 3.333-5.223 1.343-7.705-.146-11.405-6.843-22.579-14.146-34.371-20.25-11.989-6.205-24.989-9.851-38.537-11.12-7.231-.677-14.485-2.009-21.697-1.829-21.864.549-43.135 4.322-62.75 14.597-37.5 19.647-60.735 50.2-68.802 91.827-1.862 9.609-3.07 19.56-2.848 29.314.445 19.541 5.019 38.331 12.454 56.513 12.142 29.691 32.045 53.558 55.091 75.175 2.816 2.642 6.084 4.81 8.835 7.512.88.865.767 2.741 1.109 4.154-1.456-.057-3.474.489-4.28-.264-9.226-8.611-18.888-16.875-27.194-26.322-9.314-10.593-18.235-21.749-25.752-33.654-12.146-19.235-20.287-40.277-23.447-63.022-.495-3.561-1.28-7.08-1.931-10.619L0 127.662zM259.251 664.823c-5.431-.978-10.866-1.934-16.292-2.936-21.2-3.917-40.218-12.73-57.167-25.939-5.604-4.366-10.869-9.2-15.969-14.15-1.08-1.049-.762-3.535-1.089-5.36 1.616.502 3.76.506 4.768 1.578 16.504 17.565 36.35 29.685 59.545 35.962 8.916 2.413 18.188 3.663 27.372 4.894 20.869 2.797 40.984-1.051 60.669-7.756 18.595-6.333 35.049-16.311 50.119-28.902 18.816-15.721 32.495-35.157 43.033-57.042.627-1.304 1.068-2.783 1.99-3.835.906-1.033 2.316-1.625 3.505-2.41.28 1.371 1.223 3.068.734 4.063-4.301 8.759-8.467 17.622-13.424 26.012-8.149 13.792-19.068 25.468-31.012 35.937-21.867 19.162-47.073 31.937-75.939 36.959-5.437.945-10.863 1.949-16.294 2.927-8.181-.002-16.365-.002-24.549-.002z"/><path d="M152.5 481.543c1.422-14.558 2.958-30.804 4.61-47.039 1.239-12.179 2.807-24.327 3.894-36.521.919-10.319 2.124-20.703 1.859-31.022-.651-25.378-8.418-48.636-24.285-68.582-8.764-11.018-18.357-21.483-28.424-31.33-12.034-11.771-25.687-21.927-37.366-34.013-20.902-21.63-35.635-47.129-41.151-76.993-4.271-23.125-1.919-45.992 8.929-67.1 14.87-28.93 38.627-46.655 70.784-52.6 27.582-5.098 54.033-1.802 78.377 12.57 14.33 8.459 28 18.038 41.938 27.158 17.918 11.727 36.875 21.447 57.295 27.873 15.362 4.833 30.916 9.313 46.67 12.569 15.094 3.119 30.576 2.81 43.204-7.678 7.388-6.135 13.642-13.784 19.726-21.302 7.561-9.344 13.524-20.112 21.772-28.741 15.932-16.667 34.706-28.94 59.217-26.224 17.443 1.933 29.677 12.114 35.759 28.458 2.857 7.679 4.327 16.123 4.906 24.327.491 6.97-1.146 14.1-1.939 21.148-.846 7.513-2.308 14.993-2.6 22.522-.446 11.469-.771 23.013.018 34.444 1.656 24.01 7.45 46.756 25.165 64.479 10.265 10.268 23.177 16.281 37.418 18.345 10.855 1.574 22.027 2.55 32.924 1.804 9.485-.649 18.744-.748 27.864 1.409 26.232 6.204 42.586 22.811 47.055 49.237 3.489 20.633-2.316 39.711-15.439 56.292-17.217 21.755-40.535 32.57-67.247 36.69-13.045 2.013-26.288 2.718-39.44 4.029-23.953 2.392-48.264 2.367-71.318 10.769-12.864 4.688-24.124 11.829-34.148 21.152-16.021 14.899-27.968 32.751-38.806 51.563-14.521 25.21-25.635 51.978-37.377 78.501-7.965 17.995-19.729 33.386-34.999 46.225-15.549 13.075-32.938 22.268-52.563 26.76-32.653 7.475-63.063 2.463-90.247-18.124-18.246-13.817-30.279-32.149-38.488-53.141-5.914-15.123-9.691-30.821-10.92-47.082-.733-9.682-1.643-19.349-2.627-30.832z"/></svg>